<?xml version="1.0" encoding="utf-8"?>
<!-- Generator: Adobe Illustrator 16.0.0, SVG Export Plug-In . SVG Version: 6.00 Build 0)  -->
<!DOCTYPE svg PUBLIC "-//W3C//DTD SVG 1.1//EN" "http://www.w3.org/Graphics/SVG/1.1/DTD/svg11.dtd">
<svg version="1.1" id="Layer_1" xmlns="http://www.w3.org/2000/svg" xmlns:xlink="http://www.w3.org/1999/xlink" x="0px" y="0px"
	 width="350px" height="350px" viewBox="0 0 350 350" enable-background="new 0 0 350 350" xml:space="preserve">
<g>
	<path fill="#6FBC1F" d="M58.935,71.437c7.939,0,14.744-5.923,14.744-15.628c0-9.829-6.805-16.005-14.744-16.005
		S44.19,45.98,44.19,55.809C44.19,65.514,50.995,71.437,58.935,71.437L58.935,71.437z M58.808,21.654
		c20.541,0,36.926,13.738,36.926,34.155c0,20.29-16.385,33.778-36.799,33.778c-20.418,0-36.803-13.488-36.803-33.778
		C22.132,35.392,38.517,21.654,58.808,21.654L58.808,21.654z"/>
	<path fill="#6FBC1F" d="M103.294,23.167h20.92v5.671c0,2.143-0.252,4.034-0.252,4.034h0.252
		c3.023-5.043,9.201-11.219,20.668-11.219c13.107,0,23.318,6.052,23.318,24.326v42.094h-21.805V50.011
		c0-6.05-2.396-8.569-7.186-8.569c-6.807,0-10.961,3.78-12.854,9.327c-0.885,2.521-1.26,5.418-1.26,8.569v28.735h-21.803V23.167
		L103.294,23.167z"/>
	<path fill="#6FBC1F" d="M216.841,47.364c0-4.913-3.4-9.324-8.568-9.324c-6.303,0-9.326,4.535-10.461,9.324H216.841L216.841,47.364z
		 M208.774,21.654c19.158,0,29.998,13.36,29.998,31.382c0,2.145-0.506,6.808-0.506,6.808h-40.959
		c1.639,7.938,8.188,11.594,15.123,11.594c9.328,0,17.896-6.554,17.896-6.554l8.064,15.25c0,0-10.459,9.454-27.725,9.454
		c-23.191,0-35.67-16.764-35.67-34.029C174.997,36.526,187.854,21.654,208.774,21.654L208.774,21.654z"/>
	<path fill="#9AD355" d="M28.687,179.69c0,0,7.059,7.687,18.904,7.687c6.805,0,12.729-3.402,12.729-10.082
		c0-13.863-34.152-10.461-34.152-31.129c0-11.346,10.209-17.521,21.676-17.521c13.357,0,19.535,6.934,19.535,6.934l-3.908,6.555
		c0,0-5.416-5.799-15.879-5.799c-6.426,0-12.604,2.773-12.604,9.832c0,13.987,34.154,10.207,34.154,31.129
		c0,10.334-8.947,17.771-21.676,17.771c-15.377,0-23.441-9.202-23.441-9.202L28.687,179.69L28.687,179.69z"/>
	<path fill="#9AD355" d="M81.237,130.158h8.57v63.396h-8.57V130.158L81.237,130.158z M80.983,104.952h8.951v10.714h-8.951V104.952
		L80.983,104.952z"/>
	<path fill="#9AD355" d="M106.696,130.158h8.443v9.451c0,2.774-0.252,5.043-0.252,5.043h0.252
		c2.268-5.796,10.332-16.008,25.33-16.008c15.631,0,21.176,8.949,21.176,24.577v40.332h-8.57v-38.062
		c0-9.956-1.514-18.779-13.738-18.779c-10.838,0-20.166,7.437-23.062,17.899c-0.758,2.645-1.01,5.542-1.01,8.569v30.373h-8.568
		V130.158L106.696,130.158z"/>
	<path fill="#9AD355" d="M221.886,160.658c0-18.525-8.824-24.197-20.041-24.197c-12.352,0-19.537,8.947-19.537,24.072
		c0,15.123,8.191,24.953,20.795,24.953C213.062,185.486,221.886,179.31,221.886,160.658L221.886,160.658z M199.575,212.332
		c12.35,0,22.184-5.798,22.184-19.912v-5.798c0-2.396,0.25-4.538,0.25-4.538h-0.25c-3.781,7.058-10.211,11.092-20.043,11.092
		c-17.012,0-28.229-13.485-28.229-32.518c0-19.03,10.461-32.014,27.475-32.014c16.762,0,20.924,10.588,20.924,10.588h0.25
		c0,0-0.127-0.756-0.127-2.143v-6.932h8.318v61.882c0,20.166-14.873,27.979-30.373,27.979c-7.312,0-14.621-1.892-20.795-5.04
		l3.275-7.059C182.435,207.92,190.249,212.332,199.575,212.332L199.575,212.332z"/>
	<path fill="#9AD355" d="M246.579,104.952h8.57v71.711c0,8.318,3.781,9.581,7.059,9.581c1.133,0,2.143-0.127,2.143-0.127v7.688
		c0,0-1.512,0.253-3.152,0.253c-5.291,0-14.619-1.638-14.619-15.503V104.952L246.579,104.952z"/>
	<path fill="#9AD355" d="M319.173,155.24c-0.506-13.234-8.57-19.41-18.021-19.41c-10.588,0-19.789,6.68-21.803,19.41H319.173
		L319.173,155.24z M301.399,128.644c17.521,0,26.469,13.488,26.469,29.242c0,1.511-0.254,4.409-0.254,4.409h-48.646
		c0.381,16.259,11.469,25.081,24.578,25.081c11.592,0,19.283-7.687,19.283-7.687l3.904,6.554c0,0-9.199,8.822-23.441,8.822
		c-18.904,0-33.146-13.614-33.146-33.148C270.146,141.123,284.261,128.644,301.399,128.644L301.399,128.644z"/>
	<path fill="#9AD355" d="M57.673,297.09c11.215,0,20.418-9.451,20.418-25.586c0-15.501-8.191-25.457-20.037-25.457
		c-10.588,0-20.545,7.561-20.545,25.586C37.509,284.361,44.565,297.09,57.673,297.09L57.673,297.09z M29.19,239.748h8.191v6.173
		c0,2.774-0.25,4.916-0.25,4.916h0.25c0,0,5.168-12.603,21.928-12.603c17.018,0,27.605,13.609,27.605,33.271
		c0,20.039-11.975,33.146-28.357,33.146c-15.25,0-20.797-12.099-20.797-12.099h-0.252c0,0,0.252,2.27,0.252,5.548v30.246h-8.57
		V239.748L29.19,239.748z"/>
	<path fill="#9AD355" d="M99.64,239.748h8.568v63.393H99.64V239.748L99.64,239.748z M99.386,214.539h8.947v10.712h-8.947V214.539
		L99.386,214.539z"/>
	<path fill="#9AD355" d="M145.511,275.79c0,0-1.006,1.891-2.143,3.529l-15.377,23.821h-10.082l22.307-33.022l-20.416-30.37h10.084
		l13.611,21.297c1.01,1.64,2.143,3.655,2.143,3.655h0.125c0,0,1.135-2.016,2.141-3.655l13.615-21.297h10.08l-20.416,30.37
		l22.309,33.022h-10.084l-15.375-23.821c-1.135-1.639-2.145-3.529-2.145-3.529h-0.25H145.511L145.511,275.79z"/>
	<path fill="#9AD355" d="M226.925,264.827c-0.502-13.234-8.57-19.41-18.021-19.41c-10.586,0-19.787,6.681-21.803,19.41H226.925
		L226.925,264.827z M209.153,238.234c17.521,0,26.471,13.485,26.471,29.239c0,1.512-0.254,4.411-0.254,4.411h-48.65
		c0.381,16.257,11.473,25.08,24.58,25.08c11.592,0,19.279-7.688,19.279-7.688l3.908,6.554c0,0-9.199,8.82-23.441,8.82
		c-18.904,0-33.146-13.611-33.146-33.146C177.899,250.712,192.017,238.234,209.153,238.234L209.153,238.234z"/>
	<path fill="#9AD355" d="M247.591,214.539h8.572v71.711c0,8.318,3.779,9.581,7.057,9.581c1.135,0,2.143-0.127,2.143-0.127v7.688
		c0,0-1.514,0.253-3.154,0.253c-5.291,0-14.617-1.64-14.617-15.503V214.539L247.591,214.539z"/>
</g>
</svg>
